<svg width="221" height="57" viewBox="0 0 221 57" fill="none" xmlns="http://www.w3.org/2000/svg">
<g clip-path="url(#clip0_26_241)">
<path d="M10.9494 48.9282C11.3693 48.9282 11.7891 49.0655 12.125 49.3403C14.6573 51.368 17.0086 52.1595 20.4904 52.1595H38.5518C46.7233 52.1595 53.3704 45.4286 53.3704 37.154V18.8648C53.3704 10.5902 46.7233 3.85931 38.5518 3.85931H20.4904C12.3188 3.85931 5.67179 10.5902 5.67179 18.8648V37.154C5.67179 40.2872 6.39528 43.0084 7.80995 45.2455C8.18462 45.8342 8.21046 46.593 7.88101 47.2078C7.40299 48.0974 6.54385 49.7066 5.72346 51.2503L8.68848 49.7196C8.7337 49.7 8.77891 49.6739 8.82413 49.6542L10.213 49.0721C10.4455 48.9739 10.691 48.9282 10.9429 48.9282M2.33211 57C1.69906 57 1.01433 56.7841 0.516929 56.1889C0.239161 55.8553 -0.348674 54.9199 0.284379 53.5005C0.743019 52.4866 2.98454 48.2937 4.03102 46.3248C2.59696 43.669 1.87347 40.5881 1.87347 37.1475V18.8583C1.86701 8.46431 10.2259 0 20.4968 0H38.5582C48.8292 0 57.1881 8.46431 57.1881 18.8648V37.154C57.1881 47.5545 48.8292 56.0188 38.5582 56.0188H20.4968C16.5823 56.0188 13.5849 55.1227 10.6781 53.0622L10.3551 53.193L3.43026 56.7645C3.30753 56.8299 3.17187 56.8757 3.03622 56.915C2.81659 56.9738 2.57758 57.0065 2.32565 57.0065L2.33211 57Z" fill="#FFD04D"/>
<path d="M34.7918 30.5473H24.9085L22.6992 23.4435H37.253L34.7854 30.5473H34.7918ZM41.5035 20.4019C41.1482 19.8917 40.5668 19.5908 39.9467 19.5908H21.4267L20.5029 17.0855C20.2252 16.3333 19.5146 15.8296 18.7201 15.8296H15.3998C14.3468 15.8296 13.4941 16.693 13.4941 17.7592C13.4941 18.8255 14.3468 19.6889 15.3998 19.6889H17.4023L18.3066 22.1418L21.698 33.0526C21.9499 33.8571 22.6799 34.4001 23.5132 34.4001H36.1419C36.9494 34.4001 37.6664 33.8833 37.9377 33.1114L41.7425 22.1549C41.9492 21.5662 41.8588 20.9121 41.5035 20.4019Z" fill="#FFD04D"/>
<path d="M25.3156 37.8472C25.3156 39.3582 24.1012 40.588 22.609 40.588C21.1168 40.588 19.9023 39.3648 19.9023 37.8472C19.9023 36.3297 21.1168 35.1064 22.609 35.1064C24.1012 35.1064 25.3156 36.3362 25.3156 37.8472Z" fill="#FFD04D"/>
<path d="M40.1471 37.8472C40.1471 39.3582 38.9327 40.588 37.4405 40.588C35.9483 40.588 34.7339 39.3648 34.7339 37.8472C34.7339 36.3297 35.9483 35.1064 37.4405 35.1064C38.9327 35.1064 40.1471 36.3362 40.1471 37.8472Z" fill="#FFD04D"/>
<path d="M71.548 28.585C71.548 29.6316 71.703 30.6389 72.0196 31.6135C72.3296 32.5882 72.7883 33.4516 73.3761 34.1973C73.9704 34.9496 74.7003 35.5448 75.5595 36.0027C76.4251 36.454 77.4005 36.683 78.4987 36.683C79.5968 36.683 80.611 36.454 81.4701 35.9831C82.3357 35.5186 83.0592 34.8972 83.6535 34.1319C84.2478 33.36 84.7 32.4966 84.9971 31.5285C85.3008 30.5604 85.4493 29.5858 85.4493 28.585C85.4493 27.5842 85.2878 26.531 84.9648 25.5564C84.6419 24.5818 84.1832 23.7183 83.5889 22.9726C82.9946 22.2204 82.2647 21.6317 81.4055 21.1869C80.5399 20.7486 79.5774 20.5262 78.4987 20.5262C77.4199 20.5262 76.3799 20.7552 75.5078 21.2261C74.6357 21.6905 73.9058 22.3054 73.3244 23.0642C72.7431 23.823 72.2973 24.6864 72.0002 25.648C71.6966 26.6161 71.548 27.5907 71.548 28.5915M78.4664 40.8301C76.7222 40.8301 75.1331 40.4834 73.712 39.79C72.2909 39.0967 71.07 38.1809 70.0493 37.0362C69.0287 35.8915 68.2406 34.5832 67.6786 33.1115C67.1166 31.6397 66.8389 30.1287 66.8389 28.585C66.8389 27.0412 67.136 25.4321 67.7303 23.9603C68.3246 22.4886 69.1385 21.1803 70.1785 20.0487C71.225 18.9171 72.4588 18.0144 73.8929 17.3472C75.3269 16.68 76.8837 16.3398 78.5633 16.3398C80.2428 16.3398 81.8577 16.6931 83.2853 17.4126C84.7065 18.1256 85.9209 19.061 86.9286 20.2188C87.9363 21.3766 88.7179 22.6913 89.2799 24.1631C89.8419 25.6349 90.1197 27.1328 90.1197 28.6569C90.1197 30.2661 89.829 31.8032 89.2476 33.2685C88.6663 34.7272 87.8588 36.0223 86.8317 37.1474C85.8046 38.2725 84.5708 39.1686 83.1367 39.8358C81.7027 40.503 80.1459 40.8366 78.4664 40.8366" fill="#FFD04D"/>
<path d="M120.047 40.6602H115.545V30.6587C115.545 29.2328 115.306 28.1862 114.822 27.5255C114.344 26.8648 113.672 26.5378 112.819 26.5378C111.921 26.5378 111.081 26.8845 110.3 27.5778C109.518 28.2712 108.956 29.1673 108.62 30.2793V40.6537H104.118V30.6522C104.118 29.2262 103.879 28.1796 103.394 27.519C102.916 26.8583 102.244 26.5312 101.392 26.5312C100.539 26.5312 99.6864 26.8714 98.8854 27.5517C98.0909 28.2319 97.5289 29.1281 97.1865 30.2401V40.6471H92.6841V22.8224H96.7473V26.1257C97.3997 24.9679 98.2847 24.0783 99.4151 23.4569C100.546 22.8355 101.838 22.5215 103.291 22.5215C104.744 22.5215 105.907 22.8813 106.721 23.6073C107.529 24.3334 108.039 25.2295 108.265 26.2958C108.982 25.0726 109.886 24.1372 110.984 23.4896C112.083 22.842 113.336 22.5215 114.744 22.5215C115.816 22.5215 116.701 22.7243 117.399 23.1364C118.097 23.5419 118.626 24.0783 119.007 24.7324C119.389 25.3931 119.653 26.1388 119.796 26.976C119.938 27.8133 120.015 28.6637 120.015 29.5271V40.6471L120.047 40.6602Z" fill="#FFD04D"/>
<path d="M139.575 40.6602H135.073V30.6587C135.073 29.2328 134.827 28.1862 134.33 27.5255C133.839 26.8648 133.154 26.5378 132.282 26.5378C131.837 26.5378 131.372 26.6294 130.906 26.806C130.435 26.9891 129.996 27.2442 129.582 27.5713C129.169 27.8984 128.794 28.2908 128.458 28.7422C128.122 29.1935 127.877 29.6972 127.715 30.2401V40.6471H123.213V22.8224H127.276V26.1257C127.928 24.9941 128.865 24.1045 130.099 23.4765C131.326 22.842 132.715 22.5215 134.265 22.5215C135.364 22.5215 136.262 22.7243 136.953 23.1364C137.65 23.5419 138.18 24.0783 138.561 24.7324C138.942 25.3931 139.207 26.1388 139.349 26.976C139.491 27.8133 139.569 28.6637 139.569 29.5271V40.6471L139.575 40.6602Z" fill="#FFD04D"/>
<path d="M142.753 22.8352H147.256V40.66H142.753V22.8352ZM142.753 18.0928C142.753 16.8435 143.755 15.8296 144.988 15.8296H145.021C146.255 15.8296 147.256 16.8435 147.256 18.0928C147.256 19.3422 146.255 20.3561 145.021 20.3561H144.988C143.755 20.3561 142.753 19.3422 142.753 18.0928Z" fill="#FFD04D"/>
<path d="M149.846 28.4152C149.846 26.9434 150.111 25.4847 150.634 24.0457C151.158 22.6066 151.926 21.318 152.934 20.1864C153.942 19.0547 155.175 18.1324 156.629 17.4325C158.082 16.7326 159.742 16.3794 161.596 16.3794C163.793 16.3794 165.692 16.8634 167.294 17.8381C168.896 18.8127 170.084 20.0817 170.873 21.6451L167.313 24.1307C167.003 23.4504 166.616 22.8748 166.17 22.4104C165.724 21.946 165.24 21.5731 164.729 21.3049C164.213 21.0302 163.676 20.834 163.121 20.7097C162.559 20.5854 162.01 20.52 161.474 20.52C160.311 20.52 159.297 20.7555 158.431 21.233C157.566 21.7105 156.855 22.3319 156.28 23.0841C155.712 23.8429 155.279 24.7063 154.988 25.6679C154.697 26.6295 154.555 27.591 154.555 28.5395C154.555 29.6057 154.723 30.6327 155.059 31.6204C155.395 32.6081 155.873 33.4715 156.487 34.2238C157.1 34.976 157.843 35.5713 158.702 36.0292C159.568 36.4805 160.511 36.7094 161.538 36.7094C162.074 36.7094 162.636 36.644 163.218 36.5067C163.799 36.3693 164.355 36.1534 164.878 35.8591C165.401 35.5647 165.892 35.1853 166.338 34.7209C166.784 34.2565 167.145 33.6939 167.41 33.0398L171.208 35.2508C170.827 36.16 170.285 36.958 169.581 37.6514C168.877 38.3447 168.082 38.9269 167.197 39.4044C166.312 39.8819 165.369 40.2417 164.361 40.4903C163.353 40.7388 162.365 40.8631 161.403 40.8631C159.704 40.8631 158.14 40.5033 156.732 39.7707C155.324 39.0446 154.11 38.0962 153.089 36.9318C152.068 35.761 151.274 34.4396 150.705 32.9548C150.137 31.4699 149.846 29.9589 149.846 28.4152Z" fill="#FFD04D"/>
<path d="M189.205 40.66H184.703V30.6585C184.703 29.2521 184.445 28.2186 183.928 27.5449C183.411 26.8777 182.688 26.5375 181.744 26.5375C181.344 26.5375 180.918 26.6291 180.465 26.8057C180.02 26.9889 179.593 27.244 179.193 27.571C178.792 27.8981 178.418 28.2906 178.082 28.7419C177.746 29.1933 177.5 29.6969 177.339 30.2398V40.6469H172.836V15.8296H177.339V26.1385C177.991 24.9807 178.863 24.0911 179.974 23.4697C181.085 22.8483 182.306 22.5343 183.65 22.5343C184.793 22.5343 185.724 22.7306 186.434 23.1296C187.151 23.5286 187.713 24.0519 188.114 24.7125C188.514 25.3732 188.798 26.1189 188.953 26.9562C189.108 27.7934 189.186 28.6569 189.186 29.5399V40.66H189.205Z" fill="#FFD04D"/>
<path d="M198.482 37.6645C199.244 37.6645 199.961 37.5271 200.652 37.2589C201.337 36.9907 201.866 36.6244 202.248 36.1731C202.738 35.7871 202.99 35.3554 202.99 34.8779V32.8371C202.454 32.6343 201.873 32.4707 201.246 32.3465C200.62 32.2222 200.012 32.1633 199.431 32.1633C198.262 32.1633 197.312 32.4315 196.576 32.9613C195.839 33.4912 195.471 34.1715 195.471 34.9891C195.471 35.761 195.762 36.402 196.343 36.9122C196.925 37.4224 197.642 37.6775 198.494 37.6775M197.202 41.0005C196.35 41.0005 195.555 40.8566 194.819 40.5753C194.076 40.294 193.443 39.895 192.9 39.3848C192.358 38.8746 191.944 38.2793 191.641 37.599C191.337 36.9188 191.188 36.1731 191.188 35.3554C191.188 34.5378 191.369 33.7397 191.744 33.0267C192.112 32.3138 192.629 31.7054 193.288 31.2083C193.947 30.7112 194.735 30.3187 195.659 30.0374C196.576 29.7561 197.584 29.6122 198.682 29.6122C199.463 29.6122 200.232 29.6777 200.981 29.815C201.731 29.9524 202.396 30.1421 202.984 30.3906V29.3702C202.984 28.1928 202.654 27.2836 201.996 26.6491C201.337 26.0146 200.355 25.6941 199.056 25.6941C198.113 25.6941 197.196 25.8641 196.305 26.2043C195.407 26.5444 194.489 27.0416 193.553 27.7022L192.177 24.811C194.438 23.2934 196.879 22.5347 199.502 22.5347C202.125 22.5347 203.998 23.1626 205.4 24.4251C206.795 25.6875 207.499 27.506 207.499 29.887V35.4339C207.499 35.9114 207.583 36.2516 207.751 36.4543C207.919 36.6571 208.19 36.7683 208.578 36.7945V40.6734C207.816 40.8304 207.157 40.9089 206.595 40.9089C205.742 40.9089 205.09 40.7192 204.631 40.3333C204.173 39.9473 203.888 39.4371 203.772 38.8026L203.675 37.8149C202.893 38.8615 201.937 39.653 200.82 40.1959C199.702 40.7388 198.501 41.0136 197.222 41.0136L197.202 41.0005Z" fill="#FFD04D"/>
<path d="M221 39.7441C220.393 40.0123 219.656 40.2871 218.784 40.5618C217.912 40.83 216.995 40.9674 216.033 40.9674C215.406 40.9674 214.818 40.8889 214.269 40.7319C213.72 40.5749 213.235 40.3198 212.822 39.9665C212.409 39.6133 212.079 39.162 211.834 38.606C211.588 38.05 211.466 37.3762 211.466 36.5782V26.3412H209.146V22.8352H211.466V17.0527H215.968V22.8352H219.663V26.3412H215.968V35.0476C215.968 35.6821 216.129 36.1334 216.452 36.3885C216.775 36.6502 217.176 36.781 217.647 36.781C218.119 36.781 218.578 36.7025 219.023 36.5455C219.469 36.3885 219.831 36.2512 220.102 36.1399L221.007 39.7441H221Z" fill="#FFD04D"/>
</g>
<defs>
<clipPath id="clip0_26_241">
<rect width="221" height="57" fill="white"/>
</clipPath>
</defs>
</svg>
